<?xml version="1.0" standalone="no"?>
<!DOCTYPE svg PUBLIC "-//W3C//DTD SVG 20010904//EN"
 "http://www.w3.org/TR/2001/REC-SVG-20010904/DTD/svg10.dtd">
<svg version="1.0" xmlns="http://www.w3.org/2000/svg"
 width="512.000000pt" height="512.000000pt" viewBox="0 0 512.000000 512.000000"
 preserveAspectRatio="xMidYMid meet">
<metadata>
Created by potrace 1.10, written by Peter Selinger 2001-2011
</metadata>
<g transform="translate(0.000000,512.000000) scale(0.100000,-0.100000)"
fill="#FFFFFF" stroke="none">
<path d="M2186 4545 c-31 -11 -131 -105 -439 -412 -219 -219 -406 -411 -415
-428 -25 -46 -22 -132 7 -178 46 -74 130 -109 212 -87 39 10 82 49 372 338
l327 327 323 -322 c329 -329 358 -353 430 -353 97 0 187 94 187 192 -1 71 -31
106 -441 515 -342 339 -410 403 -444 412 -51 14 -71 13 -119 -4z"/>
<path d="M1428 2296 c-65 -28 -118 -108 -118 -176 0 -73 28 -105 441 -517 342
-339 410 -403 444 -412 50 -14 60 -14 110 0 34 9 102 73 442 412 222 221 409
415 418 433 22 46 19 129 -6 173 -40 72 -127 109 -209 89 -41 -10 -76 -41
-373 -337 l-327 -326 -323 322 c-216 217 -334 327 -359 338 -44 18 -102 18
-140 1z"/>
</g>
</svg>
